<?xml version="1.0" encoding="UTF-8"?>
<svg viewBox="0 0 120.9 25.3" xmlns="http://www.w3.org/2000/svg">
<style>.a{fill:#F8AD00;}</style>
<path class="a" d="m44.2 23.5c-6.3 0-9.1-4.7-9-10.7s3.6-10.8 9.7-10.8c2.6 0 4.5 0.8 5 1l-0.8 2.7c-0.8-0.4-2.3-0.8-3.7-0.8-2.7 0-5.8 1.6-5.8 7.7 0 5.6 2.2 8 5.5 8 1.6 0 3.1-0.6 3.7-0.9l0.9 2.5c-0.9 0.4-2.7 1.3-5.5 1.3"/>
<path class="a" d="m56.8 9.6c-2.1 0-3.1 1.7-3.1 5.8 0 4 0.9 5.7 3.1 5.7 2.1 0 3.1-1.7 3.1-5.7-0.1-4.1-1-5.8-3.1-5.8m-0.1 13.8c-4 0-7.1-2.2-7.1-8.1 0-5.8 3.1-8.1 7.1-8.1s7 2.2 7.1 8.1c0 5.9-3.1 8.1-7.1 8.1"/>
<path class="a" d="m69.4 7.5l0.3 1.7c1.2-1.6 2.6-2.1 4.3-2.1 3.9 0 4.5 3 4.5 5.2v10.8h-3.7v-9.5c0-1.4 0.2-3.9-2.2-3.9-2.7 0-3 3.7-3 5.1v8.4h-3.7v-15.7h3.5"/>
<path class="a" d="m87.3 21c2.9 0 2.9-4.8 2.9-5.7 0-1.9-0.2-5.6-2.8-5.6-2.8 0-2.8 4.6-2.8 5.6 0 2.4 0.3 5.7 2.7 5.7m6.6-18.8v21h-3.3l-0.1-2.7c-0.8 1.3-2 3-4.5 3-3.7 0-5.4-3.8-5.4-8.2 0-5.7 2.9-8.2 5.6-8.2s3.7 2 3.9 2.7v-7.6h3.8"/>
<path class="a" d="m103 9.6c-2.1 0-3.1 1.7-3.1 5.7s1 5.7 3.1 5.7 3.1-1.7 3.1-5.7-1-5.7-3.1-5.7m0 13.8c-4 0-7.1-2.2-7.1-8.1 0-5.8 3.1-8.1 7.1-8.1s7 2.2 7 8.1-3 8.1-7 8.1"/>
<path class="a" d="m115.3 7.5l0.1 3.9c1.2-3.8 3.2-4.2 3.9-4.2 0.6 0 1.2 0.2 1.5 0.3l-0.7 3.3c-0.3-0.1-0.7-0.2-1.2-0.2-1.1 0-1.8 0.6-2.2 1.1-0.8 1-1.1 2.2-1.1 5.9v5.6h-3.7v-15.7h3.4"/>
<path class="a" d="m12.3 0c-7 0-12.3 5.7-12.3 12.7s5.3 12.6 12.3 12.6 12.3-5.6 12.3-12.6c-0.1-7-5.3-12.7-12.3-12.7m0 24.2c-6.3 0-11.1-5.1-11.1-11.5s4.8-11.6 11.1-11.6 11.1 5.2 11.1 11.6-4.8 11.5-11.1 11.5"/>
<path class="a" d="m11.6 10.5h6.2l-3.1 2.5 1.1 1.1 6.5-5h-9.6c-1.3 0-1.8 0-2.1 0.1s-0.7 0.3-0.9 0.7c-0.1 0.3-0.2 0.9 0.1 1.3 0.3 0.5 0.8 1 2.1 2.3-1.3-0.8-4.6-3-4.6-3s0.7 0 0.9 0v-1.4h-6l17.5 11.4v-2l-8.3-7.5c-0.3-0.3-0.2-0.5 0.2-0.5"/>
</svg>
