<?xml version="1.0" encoding="UTF-8"?>
<!DOCTYPE svg  PUBLIC '-//W3C//DTD SVG 1.0//EN'  'http://www.w3.org/TR/2001/REC-SVG-20010904/DTD/svg10.dtd'>
<svg enable-background="new 0 0 217.666 91.593" version="1.0" viewBox="0 0 217.666 91.593" xml:space="preserve" xmlns="http://www.w3.org/2000/svg">
		<linearGradient id="e" x1="18.289" x2="6.4577" y1="22.289" y2="81.909" gradientUnits="userSpaceOnUse">
			<stop stop-color="#F7951D" offset="0"/>
			<stop stop-color="#F7A02A" offset=".1212"/>
			<stop stop-color="#F8D566" offset=".7162"/>
			<stop stop-color="#F8EA7E" offset="1"/>
		</linearGradient>
		<path d="M3.668,27.925C1.309,33.455,0,39.541,0,45.934c0,4.887,0.77,9.592,2.184,14.009l29.485-32.018    H3.668z" fill="url(#e)"/>
		<linearGradient id="d" x1="77.073" x2="65.242" y1="33.955" y2="93.574" gradientUnits="userSpaceOnUse">
			<stop stop-color="#F7951D" offset="0"/>
			<stop stop-color="#F7A02A" offset=".1212"/>
			<stop stop-color="#F8D566" offset=".7162"/>
			<stop stop-color="#F8EA7E" offset="1"/>
		</linearGradient>
		<path d="m89.685 59.942c1.413-4.417 2.183-9.122 2.183-14.009 0-6.393-1.309-12.479-3.668-18.009h-28.002l29.487 32.018z" fill="url(#d)"/>
		<linearGradient id="c" x1="44.07" x2="32.238" y1="27.406" y2="87.029" gradientUnits="userSpaceOnUse">
			<stop stop-color="#F7951D" offset="0"/>
			<stop stop-color="#F7A02A" offset=".1212"/>
			<stop stop-color="#F8D566" offset=".7162"/>
			<stop stop-color="#F8EA7E" offset="1"/>
		</linearGradient>
		<path d="M45.934,0C31.07,0,17.863,7.067,9.467,18.017H82.4C74.005,7.067,60.797,0,45.934,0z" fill="url(#c)"/>
		<linearGradient id="b" x1="34.858" x2="23.027" y1="25.577" y2="85.197" gradientUnits="userSpaceOnUse">
			<stop stop-color="#F7951D" offset="0"/>
			<stop stop-color="#F7A02A" offset=".1212"/>
			<stop stop-color="#F8D566" offset=".7162"/>
			<stop stop-color="#F8EA7E" offset="1"/>
		</linearGradient>
		<path d="M6.844,70.055c7.268,11.752,19.682,19.979,34.101,21.538V32.66L6.844,70.055z" fill="url(#b)"/>
		<linearGradient id="a" x1="71.64" x2="59.809" y1="32.876" y2="92.496" gradientUnits="userSpaceOnUse">
			<stop stop-color="#F7951D" offset="0"/>
			<stop stop-color="#F7A02A" offset=".1212"/>
			<stop stop-color="#F8D566" offset=".7162"/>
			<stop stop-color="#F8EA7E" offset="1"/>
		</linearGradient>
		<path d="M50.921,91.593c14.42-1.558,26.835-9.786,34.102-21.538L50.921,32.66V91.593z" fill="url(#a)"/>
	<g fill="#4D4D4D">
		<path d="M98.987,14.329v-4.42h13.981v4.42h-4.541V30.21h-4.9V14.329H98.987z"/>
		<path d="m115.15 30.21v-20.301h7.769c4.422 0 6.691 2.917 6.691 6.541 0 2.682-1.254 4.95-3.973 6.041l4.959 7.72h-5.587l-4.362-7.071h-0.598v7.071h-4.899zm4.9-15.881v4.39h1.703c2.121 0 2.988-0.943 2.988-2.21 0-1.149-0.747-2.18-2.48-2.18h-2.211z"/>
		<path d="M132.541,9.909h4.9V30.21h-4.9V9.909z"/>
		<path d="m151.75 26.114h-6.543l-1.374 4.096h-4.899l7.11-20.301h4.96l7.289 20.301h-5.168l-1.375-4.096zm-5.229-3.83h3.944l-1.972-6.423-1.972 6.423z"/>
		<path d="m173.48 16.774c-1.046-1.473-2.809-2.445-4.751-2.445-3.196 0-5.796 2.593-5.796 5.746s2.54 5.716 5.886 5.716c1.972 0 3.795-0.884 4.571-2.681h-5.168v-4.184h10.875c0 7.337-4.512 11.668-10.308 11.668-6.005 0-10.726-4.685-10.726-10.519s4.75-10.548 10.665-10.548c3.646 0 6.813 1.797 8.754 4.508l-4.002 2.739z"/>
		<path d="M181.244,30.21V9.909h11.801v4.42h-6.901v3.477h6.274v4.361h-6.274v3.624h7.021v4.42H181.244z"/>
		<path d="m98.987 40.643v-4.42h13.981v4.42h-4.541v15.882h-4.9v-15.882h-4.54z"/>
		<path d="m115.15 36.223h4.899v20.302h-4.899v-20.302z"/>
		<path d="m138.37 43.088c-1.047-1.473-2.809-2.445-4.751-2.445-3.196 0-5.796 2.593-5.796 5.745 0 3.153 2.6 5.717 5.796 5.717 1.972 0 3.734-0.973 4.78-2.445l3.943 2.799c-1.941 2.682-5.108 4.449-8.724 4.449-5.915 0-10.666-4.686-10.666-10.52 0-5.833 4.751-10.548 10.666-10.548 3.646 0 6.812 1.797 8.754 4.508l-4.002 2.74z"/>
		<path d="m161.67 56.524h-6.006l-6.094-7.455v7.455h-4.9v-20.301h4.9v6.865l5.377-6.865h5.797l-7.799 9.665 8.725 10.636z"/>
		<path d="M162.57,56.524V36.223h11.801v4.42h-6.901v3.477h6.274v4.36h-6.274v3.625h7.021v4.42H162.57z"/>
		<path d="m175.69 40.643v-4.42h13.982v4.42h-4.542v15.882h-4.899v-15.882h-4.541z"/>
		<path d="m98.987 66.956v-4.42h13.981v4.42h-4.541v15.882h-4.9v-15.882h-4.54z"/>
		<path d="m115.15 82.838v-20.302h7.769c4.422 0 6.691 2.918 6.691 6.541 0 2.682-1.254 4.951-3.973 6.041l4.959 7.72h-5.587l-4.362-7.071h-0.598v7.071h-4.899zm4.9-15.882v4.391h1.703c2.121 0 2.988-0.943 2.988-2.21 0-1.149-0.747-2.181-2.48-2.181h-2.211z"/>
		<path d="m142.97 78.742h-6.543l-1.375 4.096h-4.9l7.111-20.302h4.959l7.291 20.302h-5.17l-1.373-4.096zm-5.229-3.83h3.943l-1.973-6.423-1.97 6.423z"/>
		<path d="m164.69 69.401c-1.045-1.473-2.809-2.445-4.75-2.445-3.197 0-5.796 2.594-5.796 5.746s2.599 5.716 5.796 5.716c1.972 0 3.734-0.972 4.78-2.445l3.943 2.8c-1.941 2.681-5.108 4.448-8.724 4.448-5.916 0-10.666-4.685-10.666-10.519s4.75-10.549 10.666-10.549c3.645 0 6.813 1.798 8.754 4.508l-4.003 2.74z"/>
		<path d="m187.25 82.838h-6.005l-6.095-7.454v7.454h-4.899v-20.302h4.899v6.865l5.378-6.865h5.796l-7.798 9.665 8.724 10.637z"/>
		<path d="m187.4 82.838v-20.302h11.801v4.42h-6.901v3.477h6.274v4.361h-6.274v3.624h7.021v4.42h-11.921z"/>
		<path d="m202.22 82.838v-20.302h7.768c4.422 0 6.692 2.918 6.692 6.541 0 2.682-1.255 4.951-3.974 6.041l4.96 7.72h-5.587l-4.362-7.071h-0.598v7.071h-4.899zm4.899-15.882v4.391h1.703c2.121 0 2.987-0.943 2.987-2.21 0-1.149-0.747-2.181-2.479-2.181h-2.211z"/>
	</g>
</svg>
